<mxfile host="app.diagrams.net" agent="Mozilla/5.0 (Windows NT 10.0; Win64; x64) AppleWebKit/537.36 (KHTML, like Gecko) Chrome/131.0.0.0 Safari/537.36 Edg/131.0.0.0" version="26.0.2">
  <diagram id="C5RBs43oDa-KdzZeNtuy" name="Page-1">
    <mxGraphModel dx="2066" dy="1141" grid="1" gridSize="10" guides="1" tooltips="1" connect="1" arrows="1" fold="1" page="1" pageScale="1" pageWidth="827" pageHeight="1169" math="1" shadow="0">
      <root>
        <mxCell id="WIyWlLk6GJQsqaUBKTNV-0" />
        <mxCell id="WIyWlLk6GJQsqaUBKTNV-1" parent="WIyWlLk6GJQsqaUBKTNV-0" />
        <mxCell id="X2-DktDUUGeDg_-0hks7-27" value="" style="shape=table;startSize=0;container=1;collapsible=0;childLayout=tableLayout;fontSize=16;pointerEvents=1;align=center;verticalAlign=middle;fontFamily=Helvetica;" vertex="1" parent="WIyWlLk6GJQsqaUBKTNV-1">
          <mxGeometry x="480" y="230" width="240" height="140" as="geometry" />
        </mxCell>
        <mxCell id="X2-DktDUUGeDg_-0hks7-28" value="" style="shape=tableRow;horizontal=0;startSize=0;swimlaneHead=0;swimlaneBody=0;strokeColor=inherit;top=0;left=0;bottom=0;right=0;collapsible=0;dropTarget=0;fillColor=none;points=[[0,0.5],[1,0.5]];portConstraint=eastwest;fontSize=16;pointerEvents=1;align=center;verticalAlign=middle;fontFamily=Helvetica;fontColor=default;" vertex="1" parent="X2-DktDUUGeDg_-0hks7-27">
          <mxGeometry width="240" height="40" as="geometry" />
        </mxCell>
        <mxCell id="X2-DktDUUGeDg_-0hks7-29" value="" style="shape=partialRectangle;html=1;whiteSpace=wrap;connectable=0;strokeColor=inherit;overflow=hidden;fillColor=none;top=0;left=0;bottom=0;right=0;pointerEvents=1;fontSize=16;align=center;verticalAlign=middle;fontFamily=Helvetica;fontColor=default;" vertex="1" parent="X2-DktDUUGeDg_-0hks7-28">
          <mxGeometry width="70" height="40" as="geometry">
            <mxRectangle width="70" height="40" as="alternateBounds" />
          </mxGeometry>
        </mxCell>
        <mxCell id="X2-DktDUUGeDg_-0hks7-30" value="&lt;div style=&quot;text-align: start;&quot;&gt;&lt;span style=&quot;font-family: &amp;quot;Source Code Pro&amp;quot;, &amp;quot;DejaVu Sans Mono&amp;quot;, &amp;quot;Ubuntu Mono&amp;quot;, &amp;quot;Anonymous Pro&amp;quot;, &amp;quot;Droid Sans Mono&amp;quot;, Menlo, Monaco, Consolas, Inconsolata, Courier, monospace, &amp;quot;PingFang SC&amp;quot;, &amp;quot;Microsoft YaHei&amp;quot;, sans-serif; font-size: 14px; font-variant-ligatures: no-common-ligatures; white-space: pre; background-color: rgb(250, 250, 250);&quot;&gt;$$\cdots$$&lt;/span&gt;&lt;/div&gt;" style="shape=partialRectangle;html=1;whiteSpace=wrap;connectable=0;strokeColor=inherit;overflow=hidden;fillColor=none;top=0;left=0;bottom=0;right=0;pointerEvents=1;fontSize=16;align=center;verticalAlign=top;fontFamily=Helvetica;fontColor=default;rowspan=1;colspan=2;horizontal=1;" vertex="1" parent="X2-DktDUUGeDg_-0hks7-28">
          <mxGeometry x="70" width="100" height="40" as="geometry">
            <mxRectangle width="50" height="40" as="alternateBounds" />
          </mxGeometry>
        </mxCell>
        <mxCell id="X2-DktDUUGeDg_-0hks7-31" value="" style="shape=partialRectangle;html=1;whiteSpace=wrap;connectable=0;strokeColor=inherit;overflow=hidden;fillColor=none;top=0;left=0;bottom=0;right=0;pointerEvents=1;fontSize=16;align=center;verticalAlign=middle;fontFamily=Helvetica;fontColor=default;" vertex="1" visible="0" parent="X2-DktDUUGeDg_-0hks7-28">
          <mxGeometry x="120" width="50" height="40" as="geometry">
            <mxRectangle width="50" height="40" as="alternateBounds" />
          </mxGeometry>
        </mxCell>
        <mxCell id="X2-DktDUUGeDg_-0hks7-40" style="shape=partialRectangle;html=1;whiteSpace=wrap;connectable=0;strokeColor=inherit;overflow=hidden;fillColor=none;top=0;left=0;bottom=0;right=0;pointerEvents=1;fontSize=16;align=center;verticalAlign=middle;fontFamily=Helvetica;fontColor=default;" vertex="1" parent="X2-DktDUUGeDg_-0hks7-28">
          <mxGeometry x="170" width="70" height="40" as="geometry">
            <mxRectangle width="70" height="40" as="alternateBounds" />
          </mxGeometry>
        </mxCell>
        <mxCell id="X2-DktDUUGeDg_-0hks7-32" value="" style="shape=tableRow;horizontal=0;startSize=0;swimlaneHead=0;swimlaneBody=0;strokeColor=inherit;top=0;left=0;bottom=0;right=0;collapsible=0;dropTarget=0;fillColor=none;points=[[0,0.5],[1,0.5]];portConstraint=eastwest;fontSize=16;pointerEvents=1;align=center;verticalAlign=middle;fontFamily=Helvetica;fontColor=default;" vertex="1" parent="X2-DktDUUGeDg_-0hks7-27">
          <mxGeometry y="40" width="240" height="60" as="geometry" />
        </mxCell>
        <mxCell id="X2-DktDUUGeDg_-0hks7-33" value="&lt;span style=&quot;font-family: &amp;quot;Source Code Pro&amp;quot;, &amp;quot;DejaVu Sans Mono&amp;quot;, &amp;quot;Ubuntu Mono&amp;quot;, &amp;quot;Anonymous Pro&amp;quot;, &amp;quot;Droid Sans Mono&amp;quot;, Menlo, Monaco, Consolas, Inconsolata, Courier, monospace, &amp;quot;PingFang SC&amp;quot;, &amp;quot;Microsoft YaHei&amp;quot;, sans-serif; font-size: 14px; font-variant-ligatures: no-common-ligatures; text-align: start; white-space: pre; background-color: rgb(250, 250, 250);&quot;&gt;$$\vdots$$&lt;/span&gt;" style="shape=partialRectangle;html=1;whiteSpace=wrap;connectable=0;strokeColor=inherit;overflow=hidden;fillColor=none;top=0;left=0;bottom=0;right=0;pointerEvents=1;fontSize=16;align=center;verticalAlign=middle;fontFamily=Helvetica;fontColor=default;rowspan=1;colspan=4;" vertex="1" parent="X2-DktDUUGeDg_-0hks7-32">
          <mxGeometry width="240" height="60" as="geometry">
            <mxRectangle width="70" height="60" as="alternateBounds" />
          </mxGeometry>
        </mxCell>
        <mxCell id="X2-DktDUUGeDg_-0hks7-34" value="" style="shape=partialRectangle;html=1;whiteSpace=wrap;connectable=0;strokeColor=inherit;overflow=hidden;fillColor=none;top=0;left=0;bottom=0;right=0;pointerEvents=1;fontSize=16;align=center;verticalAlign=middle;fontFamily=Helvetica;fontColor=default;" vertex="1" visible="0" parent="X2-DktDUUGeDg_-0hks7-32">
          <mxGeometry x="70" width="50" height="60" as="geometry">
            <mxRectangle width="50" height="60" as="alternateBounds" />
          </mxGeometry>
        </mxCell>
        <mxCell id="X2-DktDUUGeDg_-0hks7-35" value="" style="shape=partialRectangle;html=1;whiteSpace=wrap;connectable=0;strokeColor=inherit;overflow=hidden;fillColor=none;top=0;left=0;bottom=0;right=0;pointerEvents=1;fontSize=16;align=center;verticalAlign=middle;fontFamily=Helvetica;fontColor=default;" vertex="1" visible="0" parent="X2-DktDUUGeDg_-0hks7-32">
          <mxGeometry x="120" width="50" height="60" as="geometry">
            <mxRectangle width="50" height="60" as="alternateBounds" />
          </mxGeometry>
        </mxCell>
        <mxCell id="X2-DktDUUGeDg_-0hks7-41" style="shape=partialRectangle;html=1;whiteSpace=wrap;connectable=0;strokeColor=inherit;overflow=hidden;fillColor=none;top=0;left=0;bottom=0;right=0;pointerEvents=1;fontSize=16;align=center;verticalAlign=middle;fontFamily=Helvetica;fontColor=default;" vertex="1" visible="0" parent="X2-DktDUUGeDg_-0hks7-32">
          <mxGeometry x="170" width="70" height="60" as="geometry">
            <mxRectangle width="70" height="60" as="alternateBounds" />
          </mxGeometry>
        </mxCell>
        <mxCell id="X2-DktDUUGeDg_-0hks7-36" value="" style="shape=tableRow;horizontal=0;startSize=0;swimlaneHead=0;swimlaneBody=0;strokeColor=inherit;top=0;left=0;bottom=0;right=0;collapsible=0;dropTarget=0;fillColor=none;points=[[0,0.5],[1,0.5]];portConstraint=eastwest;fontSize=16;pointerEvents=1;align=center;verticalAlign=middle;fontFamily=Helvetica;fontColor=default;" vertex="1" parent="X2-DktDUUGeDg_-0hks7-27">
          <mxGeometry y="100" width="240" height="40" as="geometry" />
        </mxCell>
        <mxCell id="X2-DktDUUGeDg_-0hks7-37" value="" style="shape=partialRectangle;html=1;whiteSpace=wrap;connectable=0;strokeColor=inherit;overflow=hidden;fillColor=none;top=0;left=0;bottom=0;right=0;pointerEvents=1;fontSize=16;align=center;verticalAlign=middle;fontFamily=Helvetica;fontColor=default;" vertex="1" parent="X2-DktDUUGeDg_-0hks7-36">
          <mxGeometry width="70" height="40" as="geometry">
            <mxRectangle width="70" height="40" as="alternateBounds" />
          </mxGeometry>
        </mxCell>
        <mxCell id="X2-DktDUUGeDg_-0hks7-38" value="&lt;span style=&quot;font-family: &amp;quot;Source Code Pro&amp;quot;, &amp;quot;DejaVu Sans Mono&amp;quot;, &amp;quot;Ubuntu Mono&amp;quot;, &amp;quot;Anonymous Pro&amp;quot;, &amp;quot;Droid Sans Mono&amp;quot;, Menlo, Monaco, Consolas, Inconsolata, Courier, monospace, &amp;quot;PingFang SC&amp;quot;, &amp;quot;Microsoft YaHei&amp;quot;, sans-serif; font-size: 14px; font-variant-ligatures: no-common-ligatures; text-align: start; white-space: pre; background-color: rgb(250, 250, 250);&quot;&gt;$$\cdots$$&lt;/span&gt;" style="shape=partialRectangle;html=1;whiteSpace=wrap;connectable=0;strokeColor=inherit;overflow=hidden;fillColor=none;top=0;left=0;bottom=0;right=0;pointerEvents=1;fontSize=16;align=center;verticalAlign=middle;fontFamily=Helvetica;fontColor=default;rowspan=1;colspan=2;" vertex="1" parent="X2-DktDUUGeDg_-0hks7-36">
          <mxGeometry x="70" width="100" height="40" as="geometry">
            <mxRectangle width="50" height="40" as="alternateBounds" />
          </mxGeometry>
        </mxCell>
        <mxCell id="X2-DktDUUGeDg_-0hks7-39" value="" style="shape=partialRectangle;html=1;whiteSpace=wrap;connectable=0;strokeColor=inherit;overflow=hidden;fillColor=none;top=0;left=0;bottom=0;right=0;pointerEvents=1;fontSize=16;align=center;verticalAlign=middle;fontFamily=Helvetica;fontColor=default;" vertex="1" visible="0" parent="X2-DktDUUGeDg_-0hks7-36">
          <mxGeometry x="120" width="50" height="40" as="geometry">
            <mxRectangle width="50" height="40" as="alternateBounds" />
          </mxGeometry>
        </mxCell>
        <mxCell id="X2-DktDUUGeDg_-0hks7-42" style="shape=partialRectangle;html=1;whiteSpace=wrap;connectable=0;strokeColor=inherit;overflow=hidden;fillColor=none;top=0;left=0;bottom=0;right=0;pointerEvents=1;fontSize=16;align=center;verticalAlign=middle;fontFamily=Helvetica;fontColor=default;" vertex="1" parent="X2-DktDUUGeDg_-0hks7-36">
          <mxGeometry x="170" width="70" height="40" as="geometry">
            <mxRectangle width="70" height="40" as="alternateBounds" />
          </mxGeometry>
        </mxCell>
        <mxCell id="X2-DktDUUGeDg_-0hks7-43" value="&lt;span style=&quot;font-family: &amp;quot;Source Code Pro&amp;quot;, &amp;quot;DejaVu Sans Mono&amp;quot;, &amp;quot;Ubuntu Mono&amp;quot;, &amp;quot;Anonymous Pro&amp;quot;, &amp;quot;Droid Sans Mono&amp;quot;, Menlo, Monaco, Consolas, Inconsolata, Courier, monospace, &amp;quot;PingFang SC&amp;quot;, &amp;quot;Microsoft YaHei&amp;quot;, sans-serif; font-variant-ligatures: no-common-ligatures; text-align: start; white-space-collapse: preserve; background-color: rgb(250, 250, 250);&quot;&gt;$$\vdots$$&lt;/span&gt;" style="text;html=1;align=center;verticalAlign=middle;resizable=0;points=[];autosize=1;strokeColor=none;fillColor=none;fontFamily=Helvetica;fontSize=24;fontColor=default;" vertex="1" parent="WIyWlLk6GJQsqaUBKTNV-1">
          <mxGeometry x="515" y="415" width="170" height="40" as="geometry" />
        </mxCell>
        <mxCell id="X2-DktDUUGeDg_-0hks7-44" value="" style="shape=table;startSize=0;container=1;collapsible=0;childLayout=tableLayout;fontSize=16;pointerEvents=1;align=center;verticalAlign=middle;fontFamily=Helvetica;" vertex="1" parent="WIyWlLk6GJQsqaUBKTNV-1">
          <mxGeometry x="480" y="490" width="240" height="140" as="geometry" />
        </mxCell>
        <mxCell id="X2-DktDUUGeDg_-0hks7-45" value="" style="shape=tableRow;horizontal=0;startSize=0;swimlaneHead=0;swimlaneBody=0;strokeColor=inherit;top=0;left=0;bottom=0;right=0;collapsible=0;dropTarget=0;fillColor=none;points=[[0,0.5],[1,0.5]];portConstraint=eastwest;fontSize=16;pointerEvents=1;align=center;verticalAlign=middle;fontFamily=Helvetica;fontColor=default;" vertex="1" parent="X2-DktDUUGeDg_-0hks7-44">
          <mxGeometry width="240" height="40" as="geometry" />
        </mxCell>
        <mxCell id="X2-DktDUUGeDg_-0hks7-46" value="" style="shape=partialRectangle;html=1;whiteSpace=wrap;connectable=0;strokeColor=inherit;overflow=hidden;fillColor=none;top=0;left=0;bottom=0;right=0;pointerEvents=1;fontSize=16;align=center;verticalAlign=middle;fontFamily=Helvetica;fontColor=default;" vertex="1" parent="X2-DktDUUGeDg_-0hks7-45">
          <mxGeometry width="70" height="40" as="geometry">
            <mxRectangle width="70" height="40" as="alternateBounds" />
          </mxGeometry>
        </mxCell>
        <mxCell id="X2-DktDUUGeDg_-0hks7-47" value="&lt;div style=&quot;text-align: start;&quot;&gt;&lt;span style=&quot;font-family: &amp;quot;Source Code Pro&amp;quot;, &amp;quot;DejaVu Sans Mono&amp;quot;, &amp;quot;Ubuntu Mono&amp;quot;, &amp;quot;Anonymous Pro&amp;quot;, &amp;quot;Droid Sans Mono&amp;quot;, Menlo, Monaco, Consolas, Inconsolata, Courier, monospace, &amp;quot;PingFang SC&amp;quot;, &amp;quot;Microsoft YaHei&amp;quot;, sans-serif; font-size: 14px; font-variant-ligatures: no-common-ligatures; white-space: pre; background-color: rgb(250, 250, 250);&quot;&gt;$$\cdots$$&lt;/span&gt;&lt;/div&gt;" style="shape=partialRectangle;html=1;whiteSpace=wrap;connectable=0;strokeColor=inherit;overflow=hidden;fillColor=none;top=0;left=0;bottom=0;right=0;pointerEvents=1;fontSize=16;align=center;verticalAlign=middle;fontFamily=Helvetica;fontColor=default;rowspan=1;colspan=2;" vertex="1" parent="X2-DktDUUGeDg_-0hks7-45">
          <mxGeometry x="70" width="100" height="40" as="geometry">
            <mxRectangle width="50" height="40" as="alternateBounds" />
          </mxGeometry>
        </mxCell>
        <mxCell id="X2-DktDUUGeDg_-0hks7-48" value="" style="shape=partialRectangle;html=1;whiteSpace=wrap;connectable=0;strokeColor=inherit;overflow=hidden;fillColor=none;top=0;left=0;bottom=0;right=0;pointerEvents=1;fontSize=16;align=center;verticalAlign=middle;fontFamily=Helvetica;fontColor=default;" vertex="1" visible="0" parent="X2-DktDUUGeDg_-0hks7-45">
          <mxGeometry x="120" width="50" height="40" as="geometry">
            <mxRectangle width="50" height="40" as="alternateBounds" />
          </mxGeometry>
        </mxCell>
        <mxCell id="X2-DktDUUGeDg_-0hks7-49" style="shape=partialRectangle;html=1;whiteSpace=wrap;connectable=0;strokeColor=inherit;overflow=hidden;fillColor=none;top=0;left=0;bottom=0;right=0;pointerEvents=1;fontSize=16;align=center;verticalAlign=middle;fontFamily=Helvetica;fontColor=default;" vertex="1" parent="X2-DktDUUGeDg_-0hks7-45">
          <mxGeometry x="170" width="70" height="40" as="geometry">
            <mxRectangle width="70" height="40" as="alternateBounds" />
          </mxGeometry>
        </mxCell>
        <mxCell id="X2-DktDUUGeDg_-0hks7-50" value="" style="shape=tableRow;horizontal=0;startSize=0;swimlaneHead=0;swimlaneBody=0;strokeColor=inherit;top=0;left=0;bottom=0;right=0;collapsible=0;dropTarget=0;fillColor=none;points=[[0,0.5],[1,0.5]];portConstraint=eastwest;fontSize=16;pointerEvents=1;align=center;verticalAlign=middle;fontFamily=Helvetica;fontColor=default;" vertex="1" parent="X2-DktDUUGeDg_-0hks7-44">
          <mxGeometry y="40" width="240" height="60" as="geometry" />
        </mxCell>
        <mxCell id="X2-DktDUUGeDg_-0hks7-51" value="&lt;span style=&quot;font-family: &amp;quot;Source Code Pro&amp;quot;, &amp;quot;DejaVu Sans Mono&amp;quot;, &amp;quot;Ubuntu Mono&amp;quot;, &amp;quot;Anonymous Pro&amp;quot;, &amp;quot;Droid Sans Mono&amp;quot;, Menlo, Monaco, Consolas, Inconsolata, Courier, monospace, &amp;quot;PingFang SC&amp;quot;, &amp;quot;Microsoft YaHei&amp;quot;, sans-serif; font-size: 14px; font-variant-ligatures: no-common-ligatures; text-align: start; white-space: pre; background-color: rgb(250, 250, 250);&quot;&gt;$$\vdots$$&lt;/span&gt;" style="shape=partialRectangle;html=1;whiteSpace=wrap;connectable=0;strokeColor=inherit;overflow=hidden;fillColor=none;top=0;left=0;bottom=0;right=0;pointerEvents=1;fontSize=16;align=center;verticalAlign=middle;fontFamily=Helvetica;fontColor=default;rowspan=1;colspan=4;" vertex="1" parent="X2-DktDUUGeDg_-0hks7-50">
          <mxGeometry width="240" height="60" as="geometry">
            <mxRectangle width="70" height="60" as="alternateBounds" />
          </mxGeometry>
        </mxCell>
        <mxCell id="X2-DktDUUGeDg_-0hks7-52" value="" style="shape=partialRectangle;html=1;whiteSpace=wrap;connectable=0;strokeColor=inherit;overflow=hidden;fillColor=none;top=0;left=0;bottom=0;right=0;pointerEvents=1;fontSize=16;align=center;verticalAlign=middle;fontFamily=Helvetica;fontColor=default;" vertex="1" visible="0" parent="X2-DktDUUGeDg_-0hks7-50">
          <mxGeometry x="70" width="50" height="60" as="geometry">
            <mxRectangle width="50" height="60" as="alternateBounds" />
          </mxGeometry>
        </mxCell>
        <mxCell id="X2-DktDUUGeDg_-0hks7-53" value="" style="shape=partialRectangle;html=1;whiteSpace=wrap;connectable=0;strokeColor=inherit;overflow=hidden;fillColor=none;top=0;left=0;bottom=0;right=0;pointerEvents=1;fontSize=16;align=center;verticalAlign=middle;fontFamily=Helvetica;fontColor=default;" vertex="1" visible="0" parent="X2-DktDUUGeDg_-0hks7-50">
          <mxGeometry x="120" width="50" height="60" as="geometry">
            <mxRectangle width="50" height="60" as="alternateBounds" />
          </mxGeometry>
        </mxCell>
        <mxCell id="X2-DktDUUGeDg_-0hks7-54" style="shape=partialRectangle;html=1;whiteSpace=wrap;connectable=0;strokeColor=inherit;overflow=hidden;fillColor=none;top=0;left=0;bottom=0;right=0;pointerEvents=1;fontSize=16;align=center;verticalAlign=middle;fontFamily=Helvetica;fontColor=default;" vertex="1" visible="0" parent="X2-DktDUUGeDg_-0hks7-50">
          <mxGeometry x="170" width="70" height="60" as="geometry">
            <mxRectangle width="70" height="60" as="alternateBounds" />
          </mxGeometry>
        </mxCell>
        <mxCell id="X2-DktDUUGeDg_-0hks7-55" value="" style="shape=tableRow;horizontal=0;startSize=0;swimlaneHead=0;swimlaneBody=0;strokeColor=inherit;top=0;left=0;bottom=0;right=0;collapsible=0;dropTarget=0;fillColor=none;points=[[0,0.5],[1,0.5]];portConstraint=eastwest;fontSize=16;pointerEvents=1;align=center;verticalAlign=middle;fontFamily=Helvetica;fontColor=default;" vertex="1" parent="X2-DktDUUGeDg_-0hks7-44">
          <mxGeometry y="100" width="240" height="40" as="geometry" />
        </mxCell>
        <mxCell id="X2-DktDUUGeDg_-0hks7-56" value="" style="shape=partialRectangle;html=1;whiteSpace=wrap;connectable=0;strokeColor=inherit;overflow=hidden;fillColor=none;top=0;left=0;bottom=0;right=0;pointerEvents=1;fontSize=16;align=center;verticalAlign=middle;fontFamily=Helvetica;fontColor=default;" vertex="1" parent="X2-DktDUUGeDg_-0hks7-55">
          <mxGeometry width="70" height="40" as="geometry">
            <mxRectangle width="70" height="40" as="alternateBounds" />
          </mxGeometry>
        </mxCell>
        <mxCell id="X2-DktDUUGeDg_-0hks7-57" value="&lt;span style=&quot;font-family: &amp;quot;Source Code Pro&amp;quot;, &amp;quot;DejaVu Sans Mono&amp;quot;, &amp;quot;Ubuntu Mono&amp;quot;, &amp;quot;Anonymous Pro&amp;quot;, &amp;quot;Droid Sans Mono&amp;quot;, Menlo, Monaco, Consolas, Inconsolata, Courier, monospace, &amp;quot;PingFang SC&amp;quot;, &amp;quot;Microsoft YaHei&amp;quot;, sans-serif; font-size: 14px; font-variant-ligatures: no-common-ligatures; text-align: start; white-space: pre; background-color: rgb(250, 250, 250);&quot;&gt;$$\cdots$$&lt;/span&gt;" style="shape=partialRectangle;html=1;whiteSpace=wrap;connectable=0;strokeColor=inherit;overflow=hidden;fillColor=none;top=0;left=0;bottom=0;right=0;pointerEvents=1;fontSize=16;align=center;verticalAlign=middle;fontFamily=Helvetica;fontColor=default;rowspan=1;colspan=2;" vertex="1" parent="X2-DktDUUGeDg_-0hks7-55">
          <mxGeometry x="70" width="100" height="40" as="geometry">
            <mxRectangle width="50" height="40" as="alternateBounds" />
          </mxGeometry>
        </mxCell>
        <mxCell id="X2-DktDUUGeDg_-0hks7-58" value="" style="shape=partialRectangle;html=1;whiteSpace=wrap;connectable=0;strokeColor=inherit;overflow=hidden;fillColor=none;top=0;left=0;bottom=0;right=0;pointerEvents=1;fontSize=16;align=center;verticalAlign=middle;fontFamily=Helvetica;fontColor=default;" vertex="1" visible="0" parent="X2-DktDUUGeDg_-0hks7-55">
          <mxGeometry x="120" width="50" height="40" as="geometry">
            <mxRectangle width="50" height="40" as="alternateBounds" />
          </mxGeometry>
        </mxCell>
        <mxCell id="X2-DktDUUGeDg_-0hks7-59" style="shape=partialRectangle;html=1;whiteSpace=wrap;connectable=0;strokeColor=inherit;overflow=hidden;fillColor=none;top=0;left=0;bottom=0;right=0;pointerEvents=1;fontSize=16;align=center;verticalAlign=middle;fontFamily=Helvetica;fontColor=default;" vertex="1" parent="X2-DktDUUGeDg_-0hks7-55">
          <mxGeometry x="170" width="70" height="40" as="geometry">
            <mxRectangle width="70" height="40" as="alternateBounds" />
          </mxGeometry>
        </mxCell>
        <mxCell id="X2-DktDUUGeDg_-0hks7-60" value="$$\text{Linear scan for}$$ $$\alpha n\text{-NN}\ \text{of}\ q&#39;_1$$" style="rounded=1;html=1;pointerEvents=1;strokeColor=inherit;align=center;verticalAlign=middle;fontFamily=Helvetica;fontSize=16;fontColor=default;fillColor=none;" vertex="1" parent="WIyWlLk6GJQsqaUBKTNV-1">
          <mxGeometry x="780" y="265" width="202.5" height="70" as="geometry" />
        </mxCell>
        <mxCell id="X2-DktDUUGeDg_-0hks7-61" value="$$\text{Linear scan for}$$ $$\alpha n\text{-NN}\ \text{of}\ q&#39;_{N_s}$$" style="rounded=1;html=1;pointerEvents=1;strokeColor=inherit;align=center;verticalAlign=middle;fontFamily=Helvetica;fontSize=16;fontColor=default;fillColor=none;" vertex="1" parent="WIyWlLk6GJQsqaUBKTNV-1">
          <mxGeometry x="780" y="525" width="202.5" height="70" as="geometry" />
        </mxCell>
        <mxCell id="X2-DktDUUGeDg_-0hks7-62" value="" style="endArrow=classic;html=1;rounded=0;exitX=1;exitY=0.5;exitDx=0;exitDy=0;entryX=0;entryY=0.5;entryDx=0;entryDy=0;" edge="1" parent="WIyWlLk6GJQsqaUBKTNV-1" source="X2-DktDUUGeDg_-0hks7-32" target="X2-DktDUUGeDg_-0hks7-60">
          <mxGeometry width="50" height="50" relative="1" as="geometry">
            <mxPoint x="1040" y="700" as="sourcePoint" />
            <mxPoint x="1090" y="650" as="targetPoint" />
          </mxGeometry>
        </mxCell>
        <mxCell id="X2-DktDUUGeDg_-0hks7-63" value="" style="endArrow=classic;html=1;rounded=0;exitX=1;exitY=0.5;exitDx=0;exitDy=0;entryX=0;entryY=0.5;entryDx=0;entryDy=0;" edge="1" parent="WIyWlLk6GJQsqaUBKTNV-1" source="X2-DktDUUGeDg_-0hks7-50" target="X2-DktDUUGeDg_-0hks7-61">
          <mxGeometry width="50" height="50" relative="1" as="geometry">
            <mxPoint x="1040" y="700" as="sourcePoint" />
            <mxPoint x="1090" y="650" as="targetPoint" />
          </mxGeometry>
        </mxCell>
        <mxCell id="X2-DktDUUGeDg_-0hks7-64" value="&lt;span style=&quot;font-family: &amp;quot;Source Code Pro&amp;quot;, &amp;quot;DejaVu Sans Mono&amp;quot;, &amp;quot;Ubuntu Mono&amp;quot;, &amp;quot;Anonymous Pro&amp;quot;, &amp;quot;Droid Sans Mono&amp;quot;, Menlo, Monaco, Consolas, Inconsolata, Courier, monospace, &amp;quot;PingFang SC&amp;quot;, &amp;quot;Microsoft YaHei&amp;quot;, sans-serif; font-variant-ligatures: no-common-ligatures; text-align: start; white-space-collapse: preserve; background-color: rgb(250, 250, 250);&quot;&gt;$$\vdots$$&lt;/span&gt;" style="text;html=1;align=center;verticalAlign=middle;resizable=0;points=[];autosize=1;strokeColor=none;fillColor=none;fontFamily=Helvetica;fontSize=24;fontColor=default;" vertex="1" parent="WIyWlLk6GJQsqaUBKTNV-1">
          <mxGeometry x="796.25" y="415" width="170" height="40" as="geometry" />
        </mxCell>
        <mxCell id="X2-DktDUUGeDg_-0hks7-65" value="$$\text{Collision Counting}$$" style="rounded=1;html=1;pointerEvents=1;strokeColor=inherit;align=center;verticalAlign=middle;fontFamily=Helvetica;fontSize=16;fontColor=default;fillColor=none;" vertex="1" parent="WIyWlLk6GJQsqaUBKTNV-1">
          <mxGeometry x="1087" y="400" width="202.5" height="70" as="geometry" />
        </mxCell>
        <mxCell id="X2-DktDUUGeDg_-0hks7-66" value="" style="endArrow=classic;html=1;rounded=0;exitX=1;exitY=0.5;exitDx=0;exitDy=0;entryX=0;entryY=0.5;entryDx=0;entryDy=0;" edge="1" parent="WIyWlLk6GJQsqaUBKTNV-1" source="X2-DktDUUGeDg_-0hks7-61" target="X2-DktDUUGeDg_-0hks7-65">
          <mxGeometry width="50" height="50" relative="1" as="geometry">
            <mxPoint x="1040" y="700" as="sourcePoint" />
            <mxPoint x="1090" y="650" as="targetPoint" />
          </mxGeometry>
        </mxCell>
        <mxCell id="X2-DktDUUGeDg_-0hks7-67" value="" style="endArrow=classic;html=1;rounded=0;exitX=1;exitY=0.5;exitDx=0;exitDy=0;entryX=0;entryY=0.5;entryDx=0;entryDy=0;" edge="1" parent="WIyWlLk6GJQsqaUBKTNV-1" source="X2-DktDUUGeDg_-0hks7-60" target="X2-DktDUUGeDg_-0hks7-65">
          <mxGeometry width="50" height="50" relative="1" as="geometry">
            <mxPoint x="1020" y="550" as="sourcePoint" />
            <mxPoint x="1090" y="650" as="targetPoint" />
          </mxGeometry>
        </mxCell>
        <mxCell id="X2-DktDUUGeDg_-0hks7-68" value="$$\text{Rerank}$$" style="rounded=1;html=1;pointerEvents=1;strokeColor=inherit;align=center;verticalAlign=middle;fontFamily=Helvetica;fontSize=16;fontColor=default;fillColor=none;" vertex="1" parent="WIyWlLk6GJQsqaUBKTNV-1">
          <mxGeometry x="1480" y="400" width="202.5" height="70" as="geometry" />
        </mxCell>
        <mxCell id="X2-DktDUUGeDg_-0hks7-69" value="" style="endArrow=classic;html=1;rounded=0;exitX=1;exitY=0.5;exitDx=0;exitDy=0;entryX=0;entryY=0.5;entryDx=0;entryDy=0;" edge="1" parent="WIyWlLk6GJQsqaUBKTNV-1" source="X2-DktDUUGeDg_-0hks7-65" target="X2-DktDUUGeDg_-0hks7-68">
          <mxGeometry width="50" height="50" relative="1" as="geometry">
            <mxPoint x="1040" y="700" as="sourcePoint" />
            <mxPoint x="1090" y="650" as="targetPoint" />
          </mxGeometry>
        </mxCell>
        <mxCell id="X2-DktDUUGeDg_-0hks7-71" value="&lt;span style=&quot;font-size: 16px;&quot;&gt;$$\text{Top-}\beta n\ \text{candidates}$$&lt;/span&gt;&lt;span style=&quot;font-size: 16px;&quot;&gt;$$\text{with highest SC-score}$$&lt;/span&gt;" style="text;html=1;align=center;verticalAlign=middle;resizable=0;points=[];autosize=1;strokeColor=none;fillColor=none;" vertex="1" parent="WIyWlLk6GJQsqaUBKTNV-1">
          <mxGeometry x="1114" y="420" width="540" height="30" as="geometry" />
        </mxCell>
        <mxCell id="X2-DktDUUGeDg_-0hks7-75" value="&lt;span style=&quot;font-size: 16px;&quot;&gt;$$\text{Subspace}\ S_1$$&lt;/span&gt;" style="text;html=1;align=center;verticalAlign=middle;resizable=0;points=[];autosize=1;strokeColor=none;fillColor=none;" vertex="1" parent="WIyWlLk6GJQsqaUBKTNV-1">
          <mxGeometry x="320" y="285" width="210" height="30" as="geometry" />
        </mxCell>
        <mxCell id="X2-DktDUUGeDg_-0hks7-76" value="&lt;span style=&quot;font-size: 16px;&quot;&gt;$$\text{Subspace}\ S_{N_s}$$&lt;/span&gt;" style="text;html=1;align=center;verticalAlign=middle;resizable=0;points=[];autosize=1;strokeColor=none;fillColor=none;" vertex="1" parent="WIyWlLk6GJQsqaUBKTNV-1">
          <mxGeometry x="305" y="545" width="240" height="30" as="geometry" />
        </mxCell>
      </root>
    </mxGraphModel>
  </diagram>
</mxfile>
